<svg xmlns="http://www.w3.org/2000/svg" viewBox="0 0 72 72" role="img" aria-label="Bathroom">
  <circle cx="36" cy="36" r="34" fill="#fffaf1"/>
  <path d="M19 32h34v14a13 13 0 0 1-13 13h-8a13 13 0 0 1-13-13z" fill="#d7e8ef" stroke="#102844" stroke-width="5" stroke-linejoin="round"/>
  <path d="M20 32V19a7 7 0 0 1 7-7h4" fill="none" stroke="#102844" stroke-width="5" stroke-linecap="round"/>
  <path d="M43 22h12M44 13h8a4 4 0 0 1 4 4v5H40v-5a4 4 0 0 1 4-4z" fill="#fff" stroke="#102844" stroke-width="4" stroke-linejoin="round"/>
  <path d="M27 59l-3 6M45 59l3 6" stroke="#b78d52" stroke-width="4" stroke-linecap="round"/>
</svg>
