<svg xmlns="http://www.w3.org/2000/svg" viewBox="0 0 1200 640" role="img" aria-labelledby="title desc">
  <title id="title">Capeway Inn &amp; Suites location map</title>
  <desc id="desc">Illustrated location map showing Capeway Inn &amp; Suites at 11 Main Street, Route 100, St. Bride's, Newfoundland and Labrador.</desc>
  <defs>
    <linearGradient id="water" x1="0" y1="0" x2="1" y2="1">
      <stop offset="0" stop-color="#104c72"/>
      <stop offset="0.55" stop-color="#1d7394"/>
      <stop offset="1" stop-color="#4faac2"/>
    </linearGradient>
    <linearGradient id="land" x1="0" y1="0" x2="1" y2="1">
      <stop offset="0" stop-color="#dfead4"/>
      <stop offset="0.45" stop-color="#c7d8bd"/>
      <stop offset="1" stop-color="#e8dfc8"/>
    </linearGradient>
    <linearGradient id="fieldA" x1="0" y1="0" x2="1" y2="1">
      <stop offset="0" stop-color="#b9cf9f" stop-opacity="0.86"/>
      <stop offset="1" stop-color="#e6d1a2" stop-opacity="0.7"/>
    </linearGradient>
    <linearGradient id="fieldB" x1="0" y1="0" x2="1" y2="1">
      <stop offset="0" stop-color="#91b78b" stop-opacity="0.76"/>
      <stop offset="1" stop-color="#d8c28f" stop-opacity="0.58"/>
    </linearGradient>
    <filter id="softShadow" x="-20%" y="-20%" width="140%" height="140%">
      <feDropShadow dx="0" dy="12" stdDeviation="12" flood-color="#102844" flood-opacity="0.22"/>
    </filter>
    <filter id="labelShadow" x="-20%" y="-50%" width="140%" height="200%">
      <feDropShadow dx="0" dy="4" stdDeviation="4" flood-color="#102844" flood-opacity="0.22"/>
    </filter>
  </defs>

  <rect width="1200" height="640" rx="28" fill="#eef4ee"/>
  <path d="M0 0h352c-31 78-46 142-31 196 18 65 76 85 91 147 20 83-52 157-37 225 5 24 17 48 36 72H0z" fill="url(#water)"/>
  <path d="M352 0h848v640H411c-19-24-31-48-36-72-15-68 57-142 37-225-15-62-73-82-91-147-15-54 0-118 31-196z" fill="url(#land)"/>

  <path d="M393 42c88 14 146 52 225 62 106 14 184-25 297 0 76 17 131 55 285 71v168c-133-29-223-17-302 13-113 44-225 59-344 14-87-33-135-31-205-6-23-61-74-91-83-154-8-56 38-118 127-168z" fill="url(#fieldA)"/>
  <path d="M453 403c84-39 148-33 223-9 91 29 181 18 285-11 81-22 158-22 239 1v256H416c-24-37-19-83 37-237z" fill="url(#fieldB)"/>
  <path d="M703 0c-14 83-41 160-78 230-45 85-63 171-30 251 20 48 23 98 6 159h-73c18-65 11-119-15-173-39-83-17-170 31-260 32-59 58-127 70-207z" fill="#b8c7aa" opacity="0.45"/>
  <path d="M860 46c-52 41-82 91-89 151-9 73 20 140 9 217-9 67-43 134-92 226h-64c48-89 81-155 91-219 13-80-20-150-9-229 9-67 42-129 99-192z" fill="#d7c498" opacity="0.46"/>

  <path d="M596-30c7 98 18 165 33 226 21 86 42 151 24 230-12 55-14 116 6 214" fill="none" stroke="#fff6de" stroke-width="42" stroke-linecap="round"/>
  <path d="M596-30c7 98 18 165 33 226 21 86 42 151 24 230-12 55-14 116 6 214" fill="none" stroke="#d9b95f" stroke-width="26" stroke-linecap="round"/>
  <path d="M596-30c7 98 18 165 33 226 21 86 42 151 24 230-12 55-14 116 6 214" fill="none" stroke="#f8eecf" stroke-width="4" stroke-dasharray="18 18" opacity="0.8"/>

  <path d="M712 264c88-18 167-12 264 21 62 21 126 24 208 2" fill="none" stroke="#f7f0df" stroke-width="24" stroke-linecap="round"/>
  <path d="M712 264c88-18 167-12 264 21 62 21 126 24 208 2" fill="none" stroke="#8aa1a0" stroke-width="10" stroke-linecap="round"/>
  <path d="M775 129c83 46 132 92 163 153 29 58 44 121 84 184" fill="none" stroke="#f6efd9" stroke-width="20" stroke-linecap="round"/>
  <path d="M775 129c83 46 132 92 163 153 29 58 44 121 84 184" fill="none" stroke="#8aa1a0" stroke-width="8" stroke-linecap="round"/>

  <g fill="#fff8e6" stroke="#b4a16d" stroke-opacity="0.45" stroke-width="2" opacity="0.9">
    <rect x="735" y="214" width="42" height="30" rx="6" transform="rotate(-15 756 229)"/>
    <rect x="793" y="235" width="42" height="30" rx="6" transform="rotate(-8 814 250)"/>
    <rect x="846" y="246" width="42" height="30" rx="6" transform="rotate(10 867 261)"/>
    <rect x="694" y="333" width="44" height="31" rx="6" transform="rotate(13 716 348)"/>
    <rect x="751" y="353" width="44" height="31" rx="6" transform="rotate(4 773 368)"/>
    <rect x="823" y="355" width="44" height="31" rx="6" transform="rotate(-11 845 370)"/>
  </g>

  <g fill="#153454" opacity="0.7" font-family="Arial, Helvetica, sans-serif" font-weight="700">
    <text x="565" y="208" font-size="22" transform="rotate(78 565 208)">Main Rd</text>
    <text x="886" y="281" font-size="18" transform="rotate(19 886 281)">Riverside Dr</text>
    <text x="655" y="566" font-size="18" transform="rotate(85 655 566)">Route 100</text>
    <text x="170" y="335" font-size="19" fill="#e7f8ff" opacity="0.85">Deadmans Cove</text>
  </g>

  <g filter="url(#softShadow)">
    <path d="M611 244c0-34 28-62 62-62s62 28 62 62c0 48-62 118-62 118s-62-70-62-118z" fill="#e34b3f"/>
    <circle cx="673" cy="244" r="24" fill="#fff4e2"/>
    <circle cx="673" cy="244" r="10" fill="#e34b3f"/>
  </g>

  <g filter="url(#labelShadow)">
    <rect x="719" y="204" width="310" height="94" rx="16" fill="#ffffff" opacity="0.94"/>
    <text x="743" y="239" fill="#102844" font-family="Georgia, 'Times New Roman', serif" font-size="28" font-weight="700">Capeway Inn &amp; Suites</text>
    <text x="743" y="269" fill="#526172" font-family="Arial, Helvetica, sans-serif" font-size="17" font-weight="700">11 Main Street, Route 100</text>
  </g>
</svg>
