<svg xmlns="http://www.w3.org/2000/svg" viewBox="0 0 820 250" role="img" aria-labelledby="capewayLogoLightTitle">
  <title id="capewayLogoLightTitle">Capeway Inn</title>
  <path fill="#d3b06d" d="M315 58c47-18 95-22 145-10 17 4 30 10 41 17-38-7-76-2-118 14-31 12-62 15-93 10 8 0 16-2 25-5z"/>
  <path fill="#f6efe4" d="M276 92c39-20 87-29 140-27 31 1 59 6 82 15-38-4-81 2-128 18-39 14-74 17-107 9 4-1 8-2 13-4z"/>
  <path fill="#d3b06d" d="M422 104c40-10 80-8 121 7 18 6 33 14 47 24-34-7-71-5-111 6-28 7-55 9-80 4 7 0 15-2 23-4z"/>
  <text x="410" y="176" text-anchor="middle" fill="#f6efe4" font-family="Cormorant Garamond, Georgia, 'Times New Roman', serif" font-size="98" letter-spacing="1.5px">Capeway Inn</text>
  <line x1="220" y1="215" x2="600" y2="215" stroke="#d3b06d" stroke-width="2.2" opacity="0.72"/>
</svg>
